<?xml version="1.0" encoding="UTF-8"?>
<svg width="17px" height="17px" viewBox="0 0 17 17" version="1.1" xmlns="http://www.w3.org/2000/svg" xmlns:xlink="http://www.w3.org/1999/xlink">
    <!-- Generator: Sketch 55.2 (78181) - https://sketchapp.com -->
    <title>Combined Shape</title>
    <desc>Created with Sketch.</desc>
    <g id="Page-1" stroke="none" stroke-width="1" fill="none" fill-rule="evenodd">
        <path d="M1.7500322,7.50001881 L16.2789753,7.50001881 C16.6931889,7.50001881 17.0289753,7.83580524 17.0289753,8.25001881 C17.0289753,8.66423237 16.6931889,9.00001881 16.2789753,9.00001881 L1.74971524,9.00001881 C1.8068347,9.07607025 1.87359682,9.14676071 1.94983846,9.21029541 L9.10610738,15.1738528 C9.42431506,15.4390259 9.46730811,15.9119494 9.20213504,16.2301571 C8.93696198,16.5483648 8.46403846,16.5913578 8.14583078,16.3261848 L0.989561856,10.3626273 C-0.177199612,9.3903261 -0.334840787,7.65627317 0.637460436,6.48951171 C0.743938293,6.36173828 0.861788427,6.24388814 0.989561856,6.13741029 L8.14583078,0.173852846 C8.46403846,-0.0913202146 8.93696198,-0.0483271668 9.20213504,0.269880506 C9.46730811,0.588088179 9.42431506,1.0610117 9.10610738,1.32618477 L1.94983846,7.28974221 C1.89175962,7.33814123 1.83819138,7.39170948 1.78979236,7.44978831 C1.77604238,7.46628828 1.76278955,7.48303784 1.7500322,7.50001881 Z" id="Combined-Shape" fill="#00C7C7" fill-rule="nonzero"></path>
    </g>
</svg>