<?xml version="1.0" encoding="UTF-8"?>
<svg width="69px" height="54px" viewBox="0 0 69 54" version="1.1" xmlns="http://www.w3.org/2000/svg" xmlns:xlink="http://www.w3.org/1999/xlink">
    <!-- Generator: Sketch 55.2 (78181) - https://sketchapp.com -->
    <title>icon_care</title>
    <desc>Created with Sketch.</desc>
    <g id="Page-1" stroke="none" stroke-width="1" fill="none" fill-rule="evenodd">
        <g id="1" transform="translate(-249.000000, -1537.000000)">
            <g id="our-phylosophy" transform="translate(0.000000, 1053.000000)">
                <g id="we-care" transform="translate(250.000000, 484.000000)">
                    <g id="icon_care">
                        <g id="Group-8-Copy" transform="translate(8.786885, 0.000000)" fill="#00C7C7">
                            <g id="Group-9">
                                <ellipse id="Oval" cx="26.9098361" cy="27" rx="26.9098361" ry="27"></ellipse>
                            </g>
                        </g>
                        <path d="M7.88702437e-13,17.6326531 C5.95308644,17.8333733 10.5890369,18.2007202 13.9078514,18.7346939 C17.2266659,19.2686676 19.5469996,19.7054602 20.8688525,20.0450717 L18.9159389,29.2990487 C21.7885348,32.8692672 24.6627705,35.5927135 27.5386459,37.4693878 C31.852459,40.2843991 33.5392134,41.2666213 34.8925575,40.7755102 C36.2459016,40.2843991 36.494743,41.2666213 37.7356396,40.7755102 C38.562904,40.4481028 39.1329685,39.5608666 39.4458331,38.1138017 C40.6919223,38.7398945 41.7515435,38.7398945 42.6246966,38.1138017 C43.4978497,37.4877088 43.8250622,37.0094416 43.6063341,36.679 C45.2895431,36.4712313 46.1311475,36 46.1311475,35.2653061 C46.1311475,34.5306122 46.1311475,33.9508686 46.1311475,33.5260753 L49.8548573,31.9591837 L46.7485306,22.1132436 C51.3010755,21.0586749 55.4138165,20.3692843 59.0867535,20.0450717 C62.7596906,19.7208591 65.3974394,19.5606855 67,19.5645511 L67,15.4285714 C61.9411827,15.4055964 57.7517983,15.6657668 54.4318468,16.2090826 C51.1118954,16.7523985 47.9788754,17.226922 45.0327869,17.6326531 L45.7059144,20.0450717 C43.3275713,19.3797767 41.4556545,18.8113831 40.0901639,18.3398911 C38.0419281,17.6326531 36.1998133,15.7162572 33.1158056,16.5306122 C30.0317979,17.3449673 30.5833961,17.6326531 28.7265349,17.6326531 C27.4886274,17.6326531 25.2355202,17.5014343 21.9672131,17.2389967 L21.9672131,15.4285714 C19.5684866,14.8938861 15.4383595,14.3928678 9.57683173,13.9255166 C3.71530401,13.4581654 0.523026764,13.3595261 7.88702437e-13,13.6295987 L7.88702437e-13,17.6326531 Z" id="Path-10" fill="#FAFCFF"></path>
                        <g id="hand-shake" transform="translate(0.000000, 13.224490)">
                            <path d="M46.9036076,19.7057247 C46.0095417,17.8422486 42.8109959,15.2556735 39.7207382,12.7564503 C37.9971165,11.3635354 36.3684359,10.0465864 35.3301342,9.008594 C35.0700472,8.7467164 34.6809399,8.66318954 34.3373901,8.78656733 C33.6977165,9.01811197 33.3028255,9.19646271 32.9915753,9.33496252 C32.5170476,9.54747121 32.3575964,9.61961208 31.7178339,9.684103 C31.4349681,9.71256796 31.1806647,9.86441071 31.023082,10.0996914 C29.6810043,12.1054923 28.2915006,11.9347026 27.3632666,11.623545 C27.0671428,11.5248962 27.0140221,11.3976934 26.9855486,11.2762726 C26.7862346,10.4432278 27.786631,8.50378578 29.0830622,7.20765177 C32.1677142,4.12205045 33.7584005,3.34967164 37.1182661,4.85075335 C40.9298805,6.55482577 44.7491472,7.88894271 44.7871414,7.90219671 C45.2864054,8.07485446 45.8235746,7.81297686 45.9962837,7.31768661 C46.1671244,6.82239637 45.9070373,6.28156219 45.4115995,6.10890443 C45.3736053,6.09565044 41.6303271,4.78813044 37.8946121,3.116259 C33.5420024,1.17112397 31.1539708,2.45204702 27.7428531,5.86410581 C26.4444643,7.16210783 24.6809798,9.78844486 25.1365548,11.7146329 C25.3320427,12.5344237 25.9091637,13.1417057 26.767104,13.4243983 C28.9178272,14.1341542 30.8805368,13.4547313 32.3422029,11.5153782 C32.9458398,11.4224223 33.2742631,11.2857905 33.7677434,11.0637639 C33.9461472,10.984062 34.1549821,10.8911061 34.4321532,10.7791143 C35.5179699,11.7981598 36.9833732,12.98417 38.5266335,14.2309351 C41.3170303,16.4872277 44.4814079,19.0453377 45.1932438,20.5255155 C45.5444459,21.2560864 45.166639,21.7324297 44.910378,21.9506313 C44.5345287,22.2732638 44.0201382,22.3757377 43.7410986,22.180219 C43.4335854,21.9695783 43.0330887,21.9563243 42.7160548,22.1460611 C42.3971523,22.3357978 42.2187484,22.6944562 42.2586113,23.0626327 C42.3231214,23.6660898 41.7707367,24.0114942 41.5315598,24.131047 C40.9240969,24.4384686 40.290118,24.3853636 40.0528097,24.165205 C39.7870279,23.9185383 39.4054839,23.8463975 39.0676288,23.9716433 C38.7297736,24.0987571 38.4943339,24.4100036 38.4601658,24.7705301 C38.4032189,25.3929341 37.9419492,25.9906982 37.3401809,26.2241109 C37.0497519,26.3341457 36.628345,26.4005936 36.2506271,26.0551892 C36.0152763,25.8426805 35.6887216,25.7610216 35.383166,25.8350305 C35.0737843,25.9109074 34.8250867,26.134891 34.7168876,26.4327946 C34.6808509,26.5277074 34.5991677,26.7554271 33.7107965,26.7554271 C33.0786862,26.7554271 31.9416173,26.3284527 31.3854955,25.9602763 C30.719217,25.521916 26.541185,22.4059817 22.9327108,19.3848713 C22.4258836,18.957897 21.5489017,18.0431934 20.7744243,17.2347886 C20.0872356,16.5174717 19.4589515,15.8666027 19.1362229,15.5933391 C18.7319,15.2517596 18.1339579,15.3029965 17.7979713,15.7053309 C17.4601162,16.1057083 17.5094108,16.7054293 17.9099965,17.0431839 C18.2042517,17.2918075 18.7737204,17.8933076 19.4020046,18.5480016 C20.2486444,19.4322833 21.1236688,20.3469868 21.7121791,20.8404091 C25.2467114,23.7988966 29.4949482,26.9926647 30.3414991,27.5486209 C31.0400771,28.0078852 32.5453431,28.6530612 33.7108855,28.6530612 C34.6466828,28.6530612 35.3661709,28.4385956 35.8653459,28.0192712 C36.5334929,28.2792808 37.2928438,28.2811488 38.0236324,27.9964992 C38.8873563,27.6624807 39.5972347,26.9888397 39.9996889,26.172874 C40.7475616,26.3322777 41.6037222,26.2202859 42.3819368,25.8294265 C43.1431564,25.446128 43.6935835,24.8597499 43.9669285,24.174634 C44.7224534,24.2144849 45.500668,23.9469143 46.1441677,23.3946942 C47.2338995,22.4630006 47.5337604,21.0132447 46.9036076,19.7057247 Z" id="Path" fill="#12234C" fill-rule="nonzero"></path>
                            <path d="M30.8539238,3.30612245 L21.8673877,3.30612245 C21.3162135,3.30612245 20.8688525,3.79985574 20.8688525,4.40816327 C20.8688525,5.01647079 21.3162135,5.51020408 21.8673877,5.51020408 L30.8539238,5.51020408 C31.405098,5.51020408 31.852459,5.01647079 31.852459,4.40816327 C31.852459,3.79985574 31.405098,3.30612245 30.8539238,3.30612245 Z" id="Path" fill="#12234C" fill-rule="nonzero"></path>
                            <path d="M50.372867,18.0026186 C50.0962434,17.6208276 49.5430799,17.5157862 49.1344599,17.7758887 L46.5255657,19.4131744 C46.1169457,19.6699162 46.0080361,20.1884799 46.2829031,20.5702709 C46.4559706,20.8087243 46.7379477,20.9387755 47.0252782,20.9387755 C47.1948325,20.9387755 47.3679,20.8937578 47.5213939,20.7970791 L50.1302881,19.1597933 C50.5388244,18.9029734 50.6476504,18.3844878 50.372867,18.0026186 Z" id="Path" fill="#12234C" fill-rule="nonzero"></path>
                            <path d="M43.568372,21.42081 C42.8804055,20.8770437 39.8036088,17.7166733 37.9010485,15.7267201 C37.5339589,15.3410401 36.9248153,15.3275725 36.5423214,15.6977963 C36.1579357,16.0661221 36.1464051,16.6773168 36.5134947,17.0610987 C37.0074217,17.5778394 41.3640325,22.1343225 42.3768396,22.9365043 C42.5516914,23.0753383 42.763117,23.1428571 42.970669,23.1428571 C43.2531704,23.1428571 43.5356718,23.0155927 43.7278196,22.7745314 C44.0565337,22.3579392 43.9854579,21.7505407 43.568372,21.42081 Z" id="Path" fill="#12234C" fill-rule="nonzero"></path>
                            <path d="M40.2868287,23.6653607 C39.1589278,22.7603179 36.3251861,19.7391987 35.684933,19.0401574 C35.3309139,18.6547238 34.7377929,18.6320512 34.3536764,18.983476 C33.9714134,19.3367606 33.9451113,19.9357237 34.2971886,20.3192975 C34.3310813,20.3551662 37.7128422,24.0187339 39.1099424,25.1410258 C39.2832008,25.2789211 39.4922054,25.3469388 39.6974147,25.3469388 C39.972351,25.3469388 40.2471991,25.2240995 40.4336085,24.9936542 C40.7576186,24.5854594 40.6916868,23.9903046 40.2868287,23.6653607 Z" id="Path" fill="#12234C" fill-rule="nonzero"></path>
                            <path d="M37.0097223,25.88331 C35.6672698,24.7482188 32.9203211,21.8150069 32.3837284,21.2389178 C32.0278827,20.8574258 31.4310116,20.8366204 31.0525726,21.1935885 C30.6722801,21.5505566 30.6533935,22.1473626 31.0073858,22.5289431 C31.7793556,23.3580617 34.407689,26.1534265 35.7953283,27.3281809 C35.9722803,27.4773603 36.1869174,27.5510204 36.4015545,27.5510204 C36.66888,27.5510204 36.9362938,27.435838 37.1226892,27.2148577 C37.4577949,26.8144196 37.4069598,26.2194727 37.0097223,25.88331 Z" id="Path" fill="#12234C" fill-rule="nonzero"></path>
                            <path d="M21.653394,2.12963214 C19.9276091,0.608296998 3.14139477,0.115529494 1.0673002,0.00127347458 C0.781384192,-0.0118119573 0.517556115,0.0761853764 0.31621612,0.254199943 C0.114781732,0.430282432 6.82121026e-13,0.677588312 6.82121026e-13,0.936135368 L6.82121026e-13,17.7978999 C6.82121026e-13,18.314994 0.451103534,18.7346939 1.00688876,18.7346939 L16.9332785,18.7346939 C17.3682408,18.7346939 17.754874,18.4743026 17.8897614,18.0883262 C18.0367311,17.6686264 21.5064243,7.7614615 21.9634746,2.8902558 C21.9897158,2.60545006 21.8769163,2.32442065 21.653394,2.12963214 Z" id="Shape" stroke="#12234C" stroke-width="1.5" stroke-linecap="round" stroke-linejoin="round"></path>
                            <path d="M66.0561187,2.20408163 C58.6449648,2.20408163 45.7466611,4.08692131 45.5749096,4.16560715 C45.3295376,4.27985968 45.1463714,4.49159133 45.0708928,4.74828631 C44.9954141,5.00498129 45.0331092,5.28038172 45.174687,5.5088868 C46.3412878,7.37302102 49.9939943,17.725829 50.69622,20.2512404 C50.8094822,20.6577547 51.1813893,20.9387755 51.6061226,20.9387755 L66.0561187,20.9387755 C66.5771249,20.9387755 67,20.5190884 67,20.0020101 L67,3.14075924 C67,2.62183669 66.5771249,2.20408163 66.0561187,2.20408163 Z" id="Shape" stroke="#12234C" stroke-width="1.5" stroke-linecap="round" stroke-linejoin="round"></path>
                        </g>
                    </g>
                </g>
            </g>
        </g>
    </g>
</svg>