<?xml version="1.0" encoding="UTF-8"?>
<svg width="84px" height="71px" viewBox="0 0 84 71" version="1.1" xmlns="http://www.w3.org/2000/svg" xmlns:xlink="http://www.w3.org/1999/xlink">
    <!-- Generator: Sketch 55.2 (78181) - https://sketchapp.com -->
    <title>icon_practice</title>
    <desc>Created with Sketch.</desc>
    <g id="Page-1" stroke="none" stroke-width="1" fill="none" fill-rule="evenodd">
        <g id="1" transform="translate(-731.000000, -1612.000000)">
            <g id="our-phylosophy" transform="translate(0.000000, 1053.000000)">
                <g id="we-practice" transform="translate(730.000000, 559.000000)">
                    <g id="icon_practice">
                        <g id="Group-14-Copy" fill="#00C7C7">
                            <g id="Group-8-Copy" transform="translate(0.786885, 0.000000)">
                                <g id="Group-9">
                                    <circle id="Oval" cx="33.9098361" cy="33" r="33"></circle>
                                </g>
                            </g>
                        </g>
                        <path d="M21.1791443,69.1097216 L21.1791443,51.1682974 C13.6406186,39.5875602 13.6406186,29.7994765 21.1791443,21.8040461 C32.4869329,9.81090066 47.3488377,19.4701779 51.2852235,26.1140364 C53.9094806,30.5432754 54.9396014,37.3140653 54.3755857,46.4264062 L49.8108612,47.7812323 C49.8514196,53.2539813 49.2176941,56.5071003 47.9096847,57.5405894 C46.6016754,58.5740785 42.374739,58.5740785 35.2288756,57.5405894 L35.2288756,69.1097216" id="Path-11" fill="#FAFCFF"></path>
                        <path d="M17.3099273,70.1097216 L17.3099273,51.1156024 C8.89669092,38.8553771 8.89669092,28.4929874 17.3099273,20.0284333 C29.9297818,7.33160209 46.5161438,17.5576277 50.9092765,24.5913079 C53.8380317,29.280428 54.9876794,36.4484872 54.3582199,46.0954855 L49.2638409,47.5298046 C49.3091055,53.3236617 48.6018475,56.7676542 47.1420671,57.8617822 C45.6822867,58.9559103 41.7089116,58.9559103 35.2219418,57.8617822 L35.2219418,70.1097216" id="Path-11" stroke="#12234C" stroke-width="1.5" stroke-linecap="round" stroke-linejoin="round"></path>
                        <g id="Group-23" transform="translate(38.000000, 5.000000)" stroke="#12234C" stroke-linecap="round" stroke-linejoin="round" stroke-width="1.5">
                            <path d="M2.54866841,2 C16.1828895,1.70752301e-13 27.3495561,2.33333333 36.0486684,9" id="Path-16" stroke-dasharray="2,4"></path>
                            <path d="M25.9546616,10.2281347 C31.934759,13.482526 34.9248077,20.2398144 34.9248077,30.5" id="Path-17" stroke-dasharray="2,4" transform="translate(30.439735, 20.364067) scale(-1, 1) translate(-30.439735, -20.364067) "></path>
                            <path d="M27,30 C35.8756388,32.8774445 41.1373797,37.0645835 42.7852227,42.5614171" id="Path-18" stroke-dasharray="2,4"></path>
                            <circle id="Oval" fill="#FAFCFF" cx="2" cy="2" r="2"></circle>
                            <circle id="Oval-Copy-3" fill="#FAFCFF" cx="36.5" cy="9.5" r="2.5"></circle>
                            <rect id="Rectangle" fill="#FAFCFF" x="23" y="27" width="5" height="5"></rect>
                            <polygon id="Rectangle-Copy-4" fill="#FAFCFF" transform="translate(43.590670, 44.637284) rotate(72.000000) translate(-43.590670, -44.637284) " points="41.2615535 41.1372844 45.9197858 44.6475142 41.2615535 48.1372844"></polygon>
                        </g>
                        <g id="Group-16" transform="translate(22.000000, 24.000000)">
                            <path d="M12.9160276,13.5378081 C12.3053425,14.2820618 11.3902171,14.7521481 10.1706512,14.948067 C8.95108528,15.1439859 7.96630997,14.785572 7.21632524,13.8728254 C5.00951261,14.5045687 3.66829251,14.1803013 3.19266493,12.9000232 C2.71703735,11.6197451 3.1220381,10.5190803 4.40766716,9.59802878 C3.89888715,7.61547115 4.15574298,5.98384852 5.17823465,4.70316087 C6.20072631,3.42247322 7.86486515,3.02193291 10.1706512,3.50153995 C11.4063123,2.1872322 12.7841533,1.73574109 14.3041741,2.1470666 C15.8241948,2.55839211 16.6997536,3.57011899 16.9308505,5.18224724 C19.3323193,5.1005639 20.6734264,5.81610666 20.9541718,7.32887551 C21.2349172,8.84164436 20.2257695,9.99380208 17.9267287,10.7853487 L17.7650133,11.0650821 C16.7775321,12.773215 14.8784998,13.7416209 12.9160276,13.5378081 L12.9160276,13.5378081 Z" id="Path-12" fill="#00C7C7"></path>
                            <path d="M11.5686988,13.3128555 C10.8562329,14.1716098 9.78858657,14.7140171 8.3657597,14.9400773 C6.94293283,15.1661376 5.7940283,14.7525831 4.91904612,13.6994139 C2.34443138,14.4283485 0.77967459,14.0541938 0.224775751,12.5769499 C-0.330123087,11.0997059 0.14237778,9.82970803 1.64227835,8.76695629 C1.04870168,6.47938979 1.34836681,4.59674829 2.54127376,3.11903177 C3.7341807,1.64131525 5.67567601,1.17915336 8.3657597,1.73254609 C9.80736436,0.216037157 11.4148455,-0.304914131 13.1882031,0.169692232 C14.9615606,0.644298594 15.9830459,1.81167576 16.2526589,3.67182374 C19.0543725,3.57757373 20.6189975,4.40319999 20.9465338,6.14870251 C21.27407,7.89420503 20.0967311,9.22361779 17.4145169,10.1369408 L17.2413309,10.4332237 C16.0786409,12.4223294 13.8606346,13.5482691 11.5686988,13.3128555 L11.5686988,13.3128555 Z" id="Path-12" stroke="#12234C" stroke-width="1.5" stroke-linecap="round" stroke-linejoin="round"></path>
                            <path d="M11.4645225,13.5121073 C10.5698928,12.6925986 10.3969967,11.4574579 10.9458341,9.80668514" id="Path-13" stroke="#12234C" stroke-width="1.5" stroke-linecap="round" stroke-linejoin="round"></path>
                            <path d="M2.01027948,8.7974303 C4.12447442,10.2879919 5.71185571,9.91237679 6.77242337,7.67058501" id="Path-14" stroke="#12234C" stroke-width="1.5" stroke-linecap="round" stroke-linejoin="round"></path>
                            <path d="M16.4845668,3.80668514 C15.903369,4.34895322 15.6127701,5.29609036 15.6127701,6.64809658" id="Path-15" stroke="#12234C" stroke-width="1.5" stroke-linecap="round" stroke-linejoin="round"></path>
                        </g>
                    </g>
                </g>
            </g>
        </g>
    </g>
</svg>