<svg width="197" height="56" viewBox="0 0 197 56" fill="none" xmlns="http://www.w3.org/2000/svg">
<path d="M165.106 0L153.153 32.5217H147.918L159.83 0H165.106Z" fill="#00C7C7"/>
<path d="M142.523 3.9039V27.4281L136.835 29.6363V1.69575L142.523 3.9039Z" fill="#00C7C7"/>
<path fill-rule="evenodd" clip-rule="evenodd" d="M197 16.0198C197 23.9468 190.574 30.3728 182.647 30.3728C174.72 30.3728 168.294 23.9468 168.294 16.0198C168.294 8.09287 174.72 1.66681 182.647 1.66681C190.574 1.66681 197 8.09287 197 16.0198ZM191.848 16.0198C191.848 21.1012 187.728 25.2205 182.647 25.2205C177.566 25.2205 173.446 21.1012 173.446 16.0198C173.446 10.9384 177.566 6.81917 182.647 6.81917C187.728 6.81917 191.848 10.9384 191.848 16.0198Z" fill="#00C7C7"/>
<path d="M75.7425 52.7019C75.3296 52.7019 74.9496 52.6222 74.6024 52.4626C74.2646 52.3031 73.9784 52.0826 73.7438 51.8011C73.5093 51.5102 73.3357 51.1865 73.2231 50.8299L73.406 50.5907L73.2934 52.5612H71.9704V42.3568H73.4764V47.2971L73.3075 47.0578C73.4858 46.5699 73.7908 46.1711 74.2224 45.8615C74.654 45.5424 75.1748 45.3829 75.7847 45.3829C76.3477 45.3829 76.8638 45.5284 77.333 45.8193C77.8115 46.1101 78.1868 46.5277 78.459 47.0719C78.7311 47.6162 78.8671 48.2777 78.8671 49.0565C78.8671 49.8165 78.7264 50.4687 78.4449 51.0129C78.1728 51.5571 77.7974 51.9747 77.3189 52.2656C76.8497 52.5565 76.3243 52.7019 75.7425 52.7019ZM75.4188 51.4915C76.0287 51.4915 76.5025 51.2756 76.8403 50.844C77.1875 50.403 77.3611 49.8025 77.3611 49.0424C77.3611 48.2824 77.1922 47.6865 76.8544 47.2549C76.5166 46.8233 76.0428 46.6075 75.4328 46.6075C75.0387 46.6075 74.6962 46.7107 74.4054 46.9171C74.1145 47.1141 73.8846 47.3956 73.7157 47.7616C73.5562 48.1275 73.4764 48.5639 73.4764 49.0706C73.4764 49.5679 73.5562 49.9995 73.7157 50.3655C73.8752 50.722 74.1004 50.9988 74.3913 51.1959C74.6916 51.3929 75.034 51.4915 75.4188 51.4915Z" fill="#12234C"/>
<path d="M86.7125 45.5237L83.6301 53.3916C83.4236 53.9358 83.1984 54.3674 82.9545 54.6865C82.7199 55.0055 82.4478 55.2354 82.1381 55.3762C81.8285 55.5169 81.4672 55.5873 81.0544 55.5873C80.7166 55.5873 80.4022 55.5404 80.1113 55.4465C79.8298 55.3621 79.5812 55.2448 79.3654 55.0947L79.7313 53.9264C79.9096 54.0766 80.0973 54.1892 80.2943 54.2642C80.5007 54.3393 80.7213 54.3768 80.9558 54.3768C81.2092 54.3768 81.4344 54.3065 81.6314 54.1657C81.8379 54.0343 82.0208 53.7669 82.1804 53.3634L82.49 52.6034L81.744 50.8581L79.5483 45.5237H81.2373L82.7997 49.9432L83.2078 51.2663L83.6723 49.8165L85.1502 45.5237H86.7125Z" fill="#12234C"/>
<path d="M100.141 50.098C99.9531 50.661 99.6716 51.1396 99.2963 51.5337C98.921 51.9184 98.4799 52.2093 97.9732 52.4063C97.4665 52.6034 96.9082 52.7019 96.2983 52.7019C95.4069 52.7019 94.6328 52.5096 93.9759 52.1248C93.3191 51.7401 92.8124 51.1912 92.4559 50.4781C92.0993 49.7649 91.921 48.9111 91.921 47.9164C91.921 46.9218 92.0993 46.0679 92.4559 45.3548C92.8124 44.6416 93.3191 44.0927 93.9759 43.708C94.6328 43.3233 95.4022 43.1309 96.2842 43.1309C96.8942 43.1309 97.4431 43.2154 97.931 43.3843C98.4283 43.5532 98.8506 43.8065 99.1978 44.1443C99.5449 44.4821 99.8124 44.9044 100 45.4111L98.5785 46.0445C98.3908 45.4908 98.1187 45.0874 97.7621 44.834C97.4055 44.5713 96.9411 44.4399 96.3687 44.4399C95.7963 44.4399 95.2943 44.576 94.8627 44.8481C94.431 45.1202 94.0932 45.5143 93.8493 46.0304C93.6147 46.5465 93.4974 47.1751 93.4974 47.9164C93.4974 48.6483 93.61 49.277 93.8352 49.8025C94.0604 50.3186 94.3841 50.7126 94.8064 50.9848C95.2286 51.2569 95.7353 51.3929 96.3265 51.3929C96.8988 51.3929 97.3915 51.2475 97.8043 50.9566C98.2266 50.6563 98.5269 50.2106 98.7051 49.6195L100.141 50.098Z" fill="#12234C"/>
<path d="M103.569 43.2717V52.5612H102.063V43.2717H103.569Z" fill="#12234C"/>
<path d="M110.181 43.1309C111.082 43.1309 111.86 43.3233 112.517 43.708C113.174 44.0927 113.681 44.6416 114.037 45.3548C114.394 46.0679 114.572 46.9218 114.572 47.9164C114.572 48.9111 114.394 49.7649 114.037 50.4781C113.681 51.1912 113.174 51.7401 112.517 52.1248C111.86 52.5096 111.082 52.7019 110.181 52.7019C109.289 52.7019 108.515 52.5096 107.858 52.1248C107.202 51.7401 106.695 51.1912 106.338 50.4781C105.982 49.7649 105.804 48.9111 105.804 47.9164C105.804 46.9218 105.982 46.0679 106.338 45.3548C106.695 44.6416 107.202 44.0927 107.858 43.708C108.515 43.3233 109.289 43.1309 110.181 43.1309ZM110.181 44.4399C109.599 44.4399 109.097 44.576 108.675 44.8481C108.262 45.1202 107.943 45.5143 107.718 46.0304C107.493 46.5465 107.38 47.1751 107.38 47.9164C107.38 48.6483 107.493 49.277 107.718 49.8025C107.943 50.3186 108.262 50.7126 108.675 50.9848C109.097 51.2569 109.599 51.3929 110.181 51.3929C110.772 51.3929 111.274 51.2569 111.687 50.9848C112.109 50.7126 112.433 50.3186 112.658 49.8025C112.883 49.277 112.996 48.6483 112.996 47.9164C112.996 47.1751 112.883 46.5465 112.658 46.0304C112.433 45.5143 112.109 45.1202 111.687 44.8481C111.274 44.576 110.772 44.4399 110.181 44.4399Z" fill="#12234C"/>
<path d="M124.426 43.2717V52.5612H122.639L119.05 46.706L118.149 45.0592H118.135L118.191 46.5652V52.5612H116.812V43.2717H118.585L122.16 49.1128L123.075 50.7877H123.089L123.033 49.2676V43.2717H124.426Z" fill="#12234C"/>
<path d="M24.4737 29.0296H19.0645L16.9841 22.9396H7.41399L5.33353 29.0296H0L9.11618 4.06416H15.3575L24.4737 29.0296ZM8.58661 19.0813H15.8115L12.1801 8.18725L8.58661 19.0813Z" fill="#12234C"/>
<path d="M32.0441 29.4079C30.4806 29.4079 29.081 29.017 27.8453 28.2353C26.6349 27.4535 25.6766 26.3313 24.9705 24.8687C24.2896 23.4061 23.9492 21.6535 23.9492 19.6108C23.9492 17.5178 24.3148 15.7399 25.0462 14.2773C25.7775 12.7895 26.761 11.6673 27.9966 10.9108C29.2575 10.129 30.6697 9.73813 32.2332 9.73813C33.8976 9.73813 35.2719 10.2173 36.3563 11.1755C37.4406 12.1338 38.1467 13.3695 38.4746 14.8825L37.9828 15.4878V1.8324H43.165V29.0296H38.5124L38.1719 23.28L38.7772 23.5826C38.6259 24.7679 38.235 25.8018 37.6046 26.6844C36.9741 27.5418 36.1798 28.2101 35.2215 28.6892C34.2632 29.1683 33.2041 29.4079 32.0441 29.4079ZM33.5571 25.4361C34.465 25.4361 35.2467 25.2092 35.9024 24.7552C36.558 24.2761 37.0624 23.5826 37.4154 22.6748C37.7937 21.7669 37.9828 20.6826 37.9828 19.4217C37.9828 18.2113 37.8063 17.1899 37.4532 16.3578C37.1002 15.5004 36.5958 14.8447 35.9402 14.3908C35.2845 13.9369 34.5154 13.7099 33.6328 13.7099C32.2206 13.7099 31.111 14.2143 30.304 15.223C29.5223 16.2065 29.1314 17.6565 29.1314 19.573C29.1314 21.4896 29.5223 22.9522 30.304 23.9609C31.0858 24.9444 32.1701 25.4361 33.5571 25.4361Z" fill="#12234C"/>
<path d="M58.7082 10.1164H64.0795L56.8925 29.0296H50.9159L43.7289 10.1164H49.2894L53.9421 25.0579L58.7082 10.1164Z" fill="#12234C"/>
<path d="M67.2514 7.39289C66.167 7.39289 65.36 7.16593 64.8305 6.71201C64.3009 6.23288 64.0361 5.53939 64.0361 4.63156C64.0361 3.6985 64.3009 3.00502 64.8305 2.5511C65.36 2.07196 66.167 1.8324 67.2514 1.8324C68.3357 1.8324 69.1427 2.07196 69.6723 2.5511C70.2018 3.00502 70.4666 3.6985 70.4666 4.63156C70.4666 5.53939 70.2018 6.23288 69.6723 6.71201C69.1427 7.16593 68.3357 7.39289 67.2514 7.39289ZM69.8236 10.1164V29.0296H64.6413V10.1164H69.8236Z" fill="#12234C"/>
<path d="M80.5731 29.4079C78.6566 29.4079 76.9039 29.0675 75.3152 28.3866C73.7517 27.7057 72.4782 26.7474 71.4947 25.5118L74.483 22.4857C75.0883 23.3935 75.8952 24.1374 76.9039 24.7174C77.9126 25.2974 79.1105 25.5874 80.4974 25.5874C81.4809 25.5874 82.2627 25.4487 82.8427 25.1713C83.4479 24.8687 83.7505 24.4022 83.7505 23.7718C83.7505 23.3683 83.6118 23.0278 83.3344 22.7504C83.057 22.4478 82.5022 22.2083 81.6701 22.0317L78.3413 21.3509C76.1474 20.8969 74.5839 20.2161 73.6509 19.3082C72.743 18.3752 72.2891 17.1773 72.2891 15.7147C72.2891 14.6808 72.5917 13.7099 73.1969 12.8021C73.8274 11.8942 74.7604 11.1629 75.9961 10.6081C77.2318 10.0281 78.77 9.73813 80.6109 9.73813C82.5022 9.73813 84.1414 10.0407 85.5284 10.646C86.9406 11.226 88.0501 12.096 88.8571 13.256L85.7553 16.2821C85.2005 15.3995 84.4692 14.7312 83.5614 14.2773C82.6788 13.7982 81.7457 13.5586 80.7622 13.5586C80.0561 13.5586 79.4509 13.6343 78.9466 13.7856C78.4422 13.9369 78.0639 14.1512 77.8118 14.4286C77.5596 14.6808 77.4335 15.0086 77.4335 15.4121C77.4335 15.8156 77.61 16.1686 77.9631 16.4712C78.3161 16.7486 78.9592 16.9882 79.8922 17.1899L83.7505 17.9843C85.6166 18.3626 86.9532 19.0056 87.7601 19.9135C88.5671 20.7961 88.9706 21.8678 88.9706 23.1287C88.9706 24.3391 88.6427 25.4235 87.9871 26.3818C87.3566 27.3148 86.411 28.0588 85.1501 28.6135C83.9144 29.1431 82.3888 29.4079 80.5731 29.4079Z" fill="#12234C"/>
<path d="M99.3445 9.73813C101.261 9.73813 102.938 10.129 104.375 10.9108C105.838 11.6925 106.973 12.8147 107.78 14.2773C108.612 15.7399 109.028 17.5052 109.028 19.573C109.028 21.6156 108.612 23.3809 107.78 24.8687C106.973 26.3313 105.838 27.4535 104.375 28.2353C102.938 29.017 101.261 29.4079 99.3445 29.4079C97.4532 29.4079 95.7762 29.017 94.3136 28.2353C92.851 27.4535 91.7035 26.3313 90.8714 24.8687C90.0644 23.3809 89.6609 21.6156 89.6609 19.573C89.6609 17.5052 90.0644 15.7399 90.8714 14.2773C91.7035 12.8147 92.851 11.6925 94.3136 10.9108C95.7762 10.129 97.4532 9.73813 99.3445 9.73813ZM99.3445 13.5964C98.3862 13.5964 97.5667 13.8234 96.8858 14.2773C96.2301 14.706 95.7258 15.3617 95.3727 16.2443C95.0197 17.1269 94.8431 18.2365 94.8431 19.573C94.8431 20.9095 95.0197 22.0191 95.3727 22.9017C95.7258 23.7844 96.2301 24.4526 96.8858 24.9065C97.5667 25.3352 98.3862 25.5496 99.3445 25.5496C100.278 25.5496 101.072 25.3352 101.728 24.9065C102.408 24.4526 102.925 23.7844 103.278 22.9017C103.632 22.0191 103.808 20.9095 103.808 19.573C103.808 18.2365 103.632 17.1269 103.278 16.2443C102.925 15.3617 102.408 14.706 101.728 14.2773C101.072 13.8234 100.278 13.5964 99.3445 13.5964Z" fill="#12234C"/>
<path d="M111.055 29.0296V10.1164H115.556L115.897 13.8234C116.401 12.5121 117.132 11.5034 118.091 10.7973C119.074 10.0912 120.297 9.73813 121.76 9.73813C122.189 9.73813 122.58 9.77596 122.933 9.85161C123.286 9.92726 123.576 10.0281 123.803 10.1542L123.197 14.5043C122.945 14.4034 122.63 14.3277 122.252 14.2773C121.899 14.2269 121.432 14.2017 120.852 14.2017C120.096 14.2017 119.364 14.3908 118.658 14.7691C117.952 15.1221 117.372 15.6769 116.918 16.4334C116.464 17.1647 116.237 18.0978 116.237 19.2326V29.0296H111.055Z" fill="#12234C"/>
</svg>
