<svg width="994" height="340" viewBox="0 0 994 340" fill="none" xmlns="http://www.w3.org/2000/svg">
<path d="M117.262 259.632H114.15L111.587 252.904H100.639L98.0757 259.632H95L104.41 235.368H107.889L117.262 259.632ZM101.701 250.147H110.525L106.095 238.199L101.701 250.147Z" fill="#12234C"/>
<path d="M159.99 253.419C159.478 254.792 158.745 255.98 157.793 256.985C156.841 257.966 155.718 258.713 154.425 259.228C153.155 259.743 151.764 260 150.251 260C147.956 260 145.966 259.498 144.282 258.493C142.622 257.463 141.329 256.017 140.401 254.154C139.498 252.292 139.046 250.074 139.046 247.5C139.046 244.926 139.498 242.708 140.401 240.846C141.329 238.983 142.622 237.549 144.282 236.544C145.966 235.515 147.932 235 150.177 235C151.74 235 153.131 235.221 154.351 235.662C155.572 236.078 156.609 236.716 157.464 237.574C158.343 238.407 159.038 239.436 159.551 240.662L156.658 242.022C156.121 240.625 155.34 239.571 154.315 238.86C153.314 238.125 152.008 237.757 150.397 237.757C148.761 237.757 147.321 238.15 146.076 238.934C144.831 239.694 143.855 240.797 143.147 242.243C142.464 243.689 142.122 245.441 142.122 247.5C142.122 249.534 142.451 251.287 143.11 252.757C143.77 254.203 144.709 255.319 145.93 256.103C147.15 256.863 148.591 257.243 150.251 257.243C151.862 257.243 153.265 256.838 154.461 256.029C155.657 255.196 156.524 253.958 157.061 252.316L159.99 253.419Z" fill="#12234C"/>
<path d="M172.203 235.368V259.632H169.274V235.368H172.203Z" fill="#12234C"/>
<path d="M193.51 235C195.804 235 197.782 235.515 199.441 236.544C201.126 237.549 202.42 238.983 203.323 240.846C204.25 242.708 204.714 244.926 204.714 247.5C204.714 250.074 204.25 252.292 203.323 254.154C202.42 256.017 201.126 257.463 199.441 258.493C197.782 259.498 195.804 260 193.51 260C191.215 260 189.226 259.498 187.541 258.493C185.882 257.463 184.588 256.017 183.66 254.154C182.757 252.292 182.305 250.074 182.305 247.5C182.305 244.926 182.757 242.708 183.66 240.846C184.588 238.983 185.882 237.549 187.541 236.544C189.226 235.515 191.215 235 193.51 235ZM193.51 237.757C191.85 237.757 190.41 238.15 189.189 238.934C187.969 239.694 187.029 240.809 186.37 242.279C185.711 243.725 185.381 245.466 185.381 247.5C185.381 249.534 185.711 251.287 186.37 252.757C187.029 254.203 187.969 255.319 189.189 256.103C190.41 256.863 191.85 257.243 193.51 257.243C195.194 257.243 196.634 256.863 197.83 256.103C199.051 255.319 199.991 254.203 200.65 252.757C201.309 251.287 201.638 249.534 201.638 247.5C201.638 245.466 201.309 243.725 200.65 242.279C199.991 240.809 199.051 239.694 197.83 238.934C196.634 238.15 195.194 237.757 193.51 237.757Z" fill="#12234C"/>
<path d="M233.789 235.368V259.632H230.164L220.058 243.382L217.495 238.824H217.458L217.604 242.5V259.632H214.822V235.368H218.447L228.516 251.544L231.116 256.213H231.152L231.006 252.5V235.368H233.789Z" fill="#12234C"/>
<path d="M264.443 235.368V259.632H261.514V235.368H264.443Z" fill="#12234C"/>
<path d="M294.976 235.368V259.632H291.352L281.246 243.382L278.683 238.824H278.646L278.792 242.5V259.632H276.01V235.368H279.635L289.704 251.544L292.304 256.213H292.34L292.194 252.5V235.368H294.976Z" fill="#12234C"/>
<path d="M325.308 235.368L316.154 259.632H312.822L303.631 235.368H306.78L312.932 252.132L314.47 256.949L316.008 252.169L322.159 235.368H325.308Z" fill="#12234C"/>
<path d="M333.965 259.632V235.368H350.918V238.125H336.894V245.956H347.806V248.713H336.894V256.875H351.467V259.632H333.965Z" fill="#12234C"/>
<path d="M368.739 235C370.862 235 372.693 235.441 374.231 236.324C375.769 237.181 377.05 238.456 378.076 240.147L375.622 242.059C374.719 240.49 373.694 239.387 372.547 238.75C371.424 238.088 370.057 237.757 368.446 237.757C367.152 237.757 366.078 237.941 365.224 238.309C364.394 238.676 363.783 239.167 363.393 239.779C363.002 240.368 362.807 241.042 362.807 241.801C362.807 242.659 363.075 243.419 363.613 244.081C364.15 244.718 365.224 245.221 366.835 245.588L372.071 246.765C374.39 247.279 376.001 248.064 376.904 249.118C377.832 250.147 378.295 251.434 378.295 252.978C378.295 254.35 377.905 255.576 377.124 256.654C376.367 257.708 375.293 258.529 373.901 259.118C372.51 259.706 370.875 260 368.995 260C367.237 260 365.687 259.767 364.345 259.301C363.027 258.811 361.892 258.162 360.94 257.353C359.988 256.544 359.206 255.637 358.596 254.632L361.159 252.537C361.623 253.468 362.221 254.289 362.953 255C363.686 255.711 364.565 256.262 365.59 256.654C366.639 257.047 367.836 257.243 369.178 257.243C370.423 257.243 371.497 257.096 372.4 256.801C373.328 256.483 374.036 256.029 374.524 255.441C375.012 254.828 375.256 254.093 375.256 253.235C375.256 252.451 375 251.752 374.487 251.14C373.975 250.502 373.011 250.025 371.595 249.706L365.919 248.419C364.43 248.076 363.222 247.61 362.294 247.022C361.391 246.409 360.732 245.699 360.317 244.89C359.927 244.056 359.731 243.162 359.731 242.206C359.731 240.907 360.085 239.718 360.793 238.64C361.525 237.537 362.563 236.654 363.905 235.993C365.272 235.331 366.884 235 368.739 235Z" fill="#12234C"/>
<path d="M403.976 235.368V238.125H395.554V259.632H392.625V238.125H384.203V235.368H403.976Z" fill="#12234C"/>
<path d="M436.106 235.368V259.632H433.324V244.375L433.653 237.978H433.617L425.671 259.632H423.181L415.236 237.978H415.199L415.528 244.375V259.632H412.746V235.368H417.249L422.559 250.11L424.389 256.176H424.463L426.33 250.147L431.603 235.368H436.106Z" fill="#12234C"/>
<path d="M447.659 259.632V235.368H464.612V238.125H450.588V245.956H461.5V248.713H450.588V256.875H465.161V259.632H447.659Z" fill="#12234C"/>
<path d="M493.637 235.368V259.632H490.012L479.906 243.382L477.343 238.824H477.307L477.453 242.5V259.632H474.67V235.368H478.295L488.364 251.544L490.964 256.213H491.001L490.854 252.5V235.368H493.637Z" fill="#12234C"/>
<path d="M522.211 235.368V238.125H513.789V259.632H510.86V238.125H502.439V235.368H522.211Z" fill="#12234C"/>
<path d="M555.86 260C553.566 260 551.576 259.498 549.892 258.493C548.232 257.463 546.938 256.017 546.011 254.154C545.107 252.292 544.656 250.074 544.656 247.5C544.656 244.926 545.132 242.708 546.084 240.846C547.06 238.983 548.415 237.549 550.148 236.544C551.881 235.515 553.871 235 556.117 235C558.509 235 560.449 235.453 561.938 236.36C563.452 237.267 564.672 238.664 565.6 240.551L562.927 242.022C562.39 240.625 561.536 239.571 560.364 238.86C559.217 238.125 557.801 237.757 556.117 237.757C554.481 237.757 553.029 238.15 551.759 238.934C550.514 239.694 549.526 240.809 548.793 242.279C548.086 243.725 547.732 245.466 547.732 247.5C547.732 249.534 548.037 251.287 548.647 252.757C549.282 254.203 550.209 255.319 551.43 256.103C552.675 256.863 554.188 257.243 555.97 257.243C556.971 257.243 557.899 257.12 558.753 256.875C559.632 256.605 560.388 256.213 561.023 255.699C561.682 255.184 562.195 254.534 562.561 253.75C562.927 252.966 563.11 252.047 563.11 250.993V250.147H555.421V247.39H565.783V259.632H563.476L563.33 255.11L563.952 255.221C563.318 256.74 562.317 257.917 560.95 258.75C559.583 259.583 557.886 260 555.86 260Z" fill="#12234C"/>
<path d="M585.432 235.368C587.898 235.368 589.875 236.005 591.364 237.279C592.853 238.554 593.597 240.282 593.597 242.463C593.597 244.645 592.841 246.348 591.327 247.574C589.838 248.775 587.861 249.375 585.396 249.375L585.139 249.559H579.207V259.632H576.278V235.368H585.432ZM585.396 246.801C587.129 246.801 588.41 246.446 589.24 245.735C590.094 245 590.522 243.909 590.522 242.463C590.522 241.017 590.094 239.939 589.24 239.228C588.41 238.493 587.129 238.125 585.396 238.125H579.207V246.801H585.396ZM587.08 247.39L595.062 259.632H591.584L584.627 249.007L587.08 247.39Z" fill="#12234C"/>
<path d="M613.816 235C616.11 235 618.088 235.515 619.747 236.544C621.432 237.549 622.726 238.983 623.629 240.846C624.556 242.708 625.02 244.926 625.02 247.5C625.02 250.074 624.556 252.292 623.629 254.154C622.726 256.017 621.432 257.463 619.747 258.493C618.088 259.498 616.11 260 613.816 260C611.521 260 609.532 259.498 607.847 258.493C606.188 257.463 604.894 256.017 603.966 254.154C603.063 252.292 602.611 250.074 602.611 247.5C602.611 244.926 603.063 242.708 603.966 240.846C604.894 238.983 606.188 237.549 607.847 236.544C609.532 235.515 611.521 235 613.816 235ZM613.816 237.757C612.156 237.757 610.716 238.15 609.495 238.934C608.275 239.694 607.335 240.809 606.676 242.279C606.017 243.725 605.687 245.466 605.687 247.5C605.687 249.534 606.017 251.287 606.676 252.757C607.335 254.203 608.275 255.319 609.495 256.103C610.716 256.863 612.156 257.243 613.816 257.243C615.5 257.243 616.94 256.863 618.136 256.103C619.357 255.319 620.297 254.203 620.956 252.757C621.615 251.287 621.944 249.534 621.944 247.5C621.944 245.466 621.615 243.725 620.956 242.279C620.297 240.809 619.357 239.694 618.136 238.934C616.94 238.15 615.5 237.757 613.816 237.757Z" fill="#12234C"/>
<path d="M653.619 235.368V250.588C653.619 253.701 652.801 256.054 651.165 257.647C649.53 259.216 647.186 260 644.135 260C641.108 260 638.765 259.216 637.105 257.647C635.469 256.054 634.652 253.701 634.652 250.588V235.368H637.581V249.853C637.581 252.377 638.106 254.24 639.155 255.441C640.229 256.642 641.889 257.243 644.135 257.243C646.381 257.243 648.029 256.642 649.078 255.441C650.152 254.24 650.689 252.377 650.689 249.853V235.368H653.619Z" fill="#12234C"/>
<path d="M673.245 235.368C674.88 235.368 676.296 235.674 677.492 236.287C678.713 236.875 679.665 237.721 680.348 238.824C681.032 239.926 681.373 241.238 681.373 242.757C681.373 244.277 681.032 245.588 680.348 246.691C679.665 247.794 678.713 248.652 677.492 249.265C676.296 249.853 674.88 250.147 673.245 250.147H667.643V259.632H664.713V235.368H673.245ZM672.805 247.39C674.709 247.39 676.101 246.998 676.979 246.213C677.858 245.404 678.298 244.252 678.298 242.757C678.298 241.238 677.858 240.086 676.979 239.301C676.101 238.517 674.709 238.125 672.805 238.125H667.643V247.39H672.805Z" fill="#12234C"/>
<path d="M725.485 253.419C724.973 254.792 724.24 255.98 723.288 256.985C722.336 257.966 721.214 258.713 719.92 259.228C718.65 259.743 717.259 260 715.746 260C713.451 260 711.462 259.498 709.777 258.493C708.117 257.463 706.824 256.017 705.896 254.154C704.993 252.292 704.541 250.074 704.541 247.5C704.541 244.926 704.993 242.708 705.896 240.846C706.824 238.983 708.117 237.549 709.777 236.544C711.462 235.515 713.427 235 715.672 235C717.235 235 718.626 235.221 719.847 235.662C721.067 236.078 722.104 236.716 722.959 237.574C723.838 238.407 724.533 239.436 725.046 240.662L722.153 242.022C721.616 240.625 720.835 239.571 719.81 238.86C718.809 238.125 717.503 237.757 715.892 237.757C714.257 237.757 712.816 238.15 711.571 238.934C710.327 239.694 709.35 240.797 708.642 242.243C707.959 243.689 707.617 245.441 707.617 247.5C707.617 249.534 707.947 251.287 708.606 252.757C709.265 254.203 710.204 255.319 711.425 256.103C712.646 256.863 714.086 257.243 715.746 257.243C717.357 257.243 718.76 256.838 719.956 256.029C721.153 255.196 722.019 253.958 722.556 252.316L725.485 253.419Z" fill="#12234C"/>
<path d="M744.509 235C746.803 235 748.781 235.515 750.441 236.544C752.125 237.549 753.419 238.983 754.322 240.846C755.249 242.708 755.713 244.926 755.713 247.5C755.713 250.074 755.249 252.292 754.322 254.154C753.419 256.017 752.125 257.463 750.441 258.493C748.781 259.498 746.803 260 744.509 260C742.214 260 740.225 259.498 738.541 258.493C736.881 257.463 735.587 256.017 734.659 254.154C733.756 252.292 733.305 250.074 733.305 247.5C733.305 244.926 733.756 242.708 734.659 240.846C735.587 238.983 736.881 237.549 738.541 236.544C740.225 235.515 742.214 235 744.509 235ZM744.509 237.757C742.849 237.757 741.409 238.15 740.188 238.934C738.968 239.694 738.028 240.809 737.369 242.279C736.71 243.725 736.38 245.466 736.38 247.5C736.38 249.534 736.71 251.287 737.369 252.757C738.028 254.203 738.968 255.319 740.188 256.103C741.409 256.863 742.849 257.243 744.509 257.243C746.193 257.243 747.633 256.863 748.829 256.103C750.05 255.319 750.99 254.203 751.649 252.757C752.308 251.287 752.637 249.534 752.637 247.5C752.637 245.466 752.308 243.725 751.649 242.279C750.99 240.809 750.05 239.694 748.829 238.934C747.633 238.15 746.193 237.757 744.509 237.757Z" fill="#12234C"/>
<path d="M789.181 235.368V259.632H786.399V244.375L786.728 237.978H786.692L778.746 259.632H776.256L768.311 237.978H768.274L768.604 244.375V259.632H765.821V235.368H770.325L775.634 250.11L777.465 256.176H777.538L779.405 250.147L784.678 235.368H789.181Z" fill="#12234C"/>
<path d="M809.266 235.368C810.901 235.368 812.317 235.674 813.513 236.287C814.734 236.875 815.686 237.721 816.369 238.824C817.053 239.926 817.394 241.238 817.394 242.757C817.394 244.277 817.053 245.588 816.369 246.691C815.686 247.794 814.734 248.652 813.513 249.265C812.317 249.853 810.901 250.147 809.266 250.147H803.663V259.632H800.734V235.368H809.266ZM808.826 247.39C810.73 247.39 812.122 246.998 813 246.213C813.879 245.404 814.319 244.252 814.319 242.757C814.319 241.238 813.879 240.086 813 239.301C812.122 238.517 810.73 238.125 808.826 238.125H803.663V247.39H808.826Z" fill="#12234C"/>
<path d="M844.252 259.632H841.139L838.576 252.904H827.628L825.065 259.632H821.989L831.4 235.368H834.878L844.252 259.632ZM828.69 250.147H837.514L833.084 238.199L828.69 250.147Z" fill="#12234C"/>
<path d="M871.792 235.368V259.632H868.167L858.061 243.382L855.498 238.824H855.462L855.608 242.5V259.632H852.825V235.368H856.45L866.52 251.544L869.119 256.213H869.156L869.01 252.5V235.368H871.792Z" fill="#12234C"/>
<path d="M900 235.368L891.359 250.147V259.632H888.43V250.147L879.788 235.368H883.267L887.954 243.676L889.894 247.132L891.835 243.676L896.522 235.368H900Z" fill="#12234C"/>
<path d="M769.531 70L720.699 202.855H699.314L747.978 70H769.531Z" fill="#00C7C7"/>
<path d="M677.272 85.9483V182.048L654.035 191.068V76.9277L677.272 85.9483Z" fill="#00C7C7"/>
<path fill-rule="evenodd" clip-rule="evenodd" d="M841.185 173.029C861.943 173.029 878.771 156.202 878.771 135.443C878.771 114.685 861.943 97.8576 841.185 97.8576C820.427 97.8576 803.599 114.685 803.599 135.443C803.599 156.202 820.427 173.029 841.185 173.029ZM841.185 194.077C873.567 194.077 899.819 167.826 899.819 135.443C899.819 103.061 873.567 76.8096 841.185 76.8096C808.802 76.8096 782.551 103.061 782.551 135.443C782.551 167.826 808.802 194.077 841.185 194.077Z" fill="#00C7C7"/>
<path d="M194.778 188.11H172.725L164.243 163.282H125.227L116.745 188.11H95L132.166 86.3273H157.612L194.778 188.11ZM130.007 147.551H159.463L144.658 103.137L130.007 147.551Z" fill="#12234C"/>
<path d="M225.804 189.653C219.429 189.653 213.723 188.059 208.686 184.872C203.751 181.685 199.844 177.11 196.965 171.147C194.189 165.184 192.801 158.038 192.801 149.71C192.801 141.177 194.292 133.929 197.273 127.966C200.255 121.9 204.265 117.325 209.302 114.241C214.443 111.053 220.2 109.46 226.575 109.46C233.36 109.46 238.963 111.413 243.384 115.32C247.805 119.227 250.684 124.265 252.021 130.433L250.016 132.901V77.2285H271.143V188.11H252.175L250.787 164.669L253.254 165.903C252.637 170.735 251.044 174.951 248.474 178.549C245.903 182.045 242.665 184.769 238.758 186.723C234.851 188.676 230.533 189.653 225.804 189.653ZM231.972 173.46C235.674 173.46 238.861 172.535 241.534 170.684C244.207 168.731 246.263 165.903 247.702 162.202C249.245 158.501 250.016 154.08 250.016 148.939C250.016 144.004 249.296 139.841 247.857 136.448C246.417 132.952 244.361 130.279 241.688 128.429C239.015 126.578 235.879 125.653 232.281 125.653C226.523 125.653 222 127.709 218.71 131.821C215.522 135.831 213.929 141.743 213.929 149.556C213.929 157.37 215.522 163.333 218.71 167.445C221.897 171.455 226.318 173.46 231.972 173.46Z" fill="#12234C"/>
<path d="M334.674 111.002H356.572L327.271 188.11H302.905L273.604 111.002H296.274L315.242 171.918L334.674 111.002Z" fill="#12234C"/>
<path d="M369.665 99.8984C365.244 99.8984 361.954 98.9731 359.795 97.1225C357.636 95.1691 356.557 92.3418 356.557 88.6406C356.557 84.8365 357.636 82.0092 359.795 80.1586C361.954 78.2052 365.244 77.2285 369.665 77.2285C374.086 77.2285 377.376 78.2052 379.535 80.1586C381.694 82.0092 382.773 84.8365 382.773 88.6406C382.773 92.3418 381.694 95.1691 379.535 97.1225C377.376 98.9731 374.086 99.8984 369.665 99.8984ZM380.152 111.002V188.11H359.024V111.002H380.152Z" fill="#12234C"/>
<path d="M424.139 189.653C416.325 189.653 409.18 188.265 402.702 185.489C396.328 182.713 391.136 178.806 387.127 173.768L399.31 161.431C401.777 165.132 405.067 168.165 409.18 170.53C413.292 172.894 418.176 174.077 423.83 174.077C427.84 174.077 431.027 173.511 433.392 172.38C435.859 171.147 437.093 169.245 437.093 166.674C437.093 165.029 436.527 163.641 435.396 162.51C434.265 161.277 432.004 160.3 428.611 159.58L415.04 156.804C406.095 154.954 399.721 152.178 395.917 148.477C392.216 144.673 390.365 139.789 390.365 133.826C390.365 129.611 391.599 125.653 394.066 121.951C396.637 118.25 400.441 115.269 405.478 113.007C410.516 110.642 416.788 109.46 424.293 109.46C432.004 109.46 438.686 110.694 444.341 113.161C450.098 115.526 454.622 119.073 457.912 123.802L445.266 136.139C443.004 132.541 440.023 129.816 436.322 127.966C432.723 126.012 428.919 125.036 424.91 125.036C422.031 125.036 419.563 125.344 417.507 125.961C415.451 126.578 413.909 127.452 412.881 128.583C411.853 129.611 411.339 130.947 411.339 132.592C411.339 134.237 412.058 135.677 413.498 136.91C414.937 138.041 417.559 139.018 421.363 139.841L437.093 143.079C444.701 144.621 450.15 147.243 453.44 150.944C456.73 154.543 458.375 158.912 458.375 164.053C458.375 168.988 457.038 173.408 454.365 177.315C451.795 181.119 447.939 184.152 442.799 186.414C437.761 188.573 431.541 189.653 424.139 189.653Z" fill="#12234C"/>
<path d="M500.83 109.46C508.644 109.46 515.481 111.053 521.341 114.241C527.304 117.428 531.931 122.003 535.22 127.966C538.613 133.929 540.31 141.126 540.31 149.556C540.31 157.884 538.613 165.081 535.22 171.147C531.931 177.11 527.304 181.685 521.341 184.872C515.481 188.059 508.644 189.653 500.83 189.653C493.119 189.653 486.282 188.059 480.319 184.872C474.356 181.685 469.678 177.11 466.286 171.147C462.996 165.081 461.351 157.884 461.351 149.556C461.351 141.126 462.996 133.929 466.286 127.966C469.678 122.003 474.356 117.428 480.319 114.241C486.282 111.053 493.119 109.46 500.83 109.46ZM500.83 125.19C496.923 125.19 493.582 126.115 490.806 127.966C488.133 129.714 486.077 132.387 484.637 135.985C483.198 139.584 482.478 144.107 482.478 149.556C482.478 155.005 483.198 159.529 484.637 163.127C486.077 166.726 488.133 169.45 490.806 171.301C493.582 173.049 496.923 173.923 500.83 173.923C504.634 173.923 507.873 173.049 510.546 171.301C513.322 169.45 515.429 166.726 516.869 163.127C518.308 159.529 519.028 155.005 519.028 149.556C519.028 144.107 518.308 139.584 516.869 135.985C515.429 132.387 513.322 129.714 510.546 127.966C507.873 126.115 504.634 125.19 500.83 125.19Z" fill="#12234C"/>
<path d="M548.735 188.11V111.002H567.087L568.475 126.115C570.531 120.769 573.512 116.657 577.419 113.778C581.429 110.899 586.415 109.46 592.378 109.46C594.126 109.46 595.72 109.614 597.159 109.922C598.598 110.231 599.781 110.642 600.706 111.156L598.239 128.891C597.21 128.48 595.925 128.171 594.383 127.966C592.944 127.76 591.042 127.657 588.677 127.657C585.593 127.657 582.611 128.429 579.733 129.971C576.854 131.41 574.489 133.672 572.639 136.756C570.788 139.738 569.863 143.542 569.863 148.168V188.11H548.735Z" fill="#12234C"/>
</svg>
