<svg xmlns="http://www.w3.org/2000/svg" width="104" height="124" viewBox="0 0 104 124"><g><g><g><path fill="#344154" d="M2.786 51.812h98.418v69.376H2.786zM103.976 124V49H0v75z"/></g><g><path fill="#344154" d="M14.745 40.405c0-20.762 16.896-37.667 37.731-37.667s37.756 16.905 37.756 37.667v7.833H14.745zm78.255 0C93 18.119 74.838 0 52.5 0S12 18.12 12 40.405V51h81z"/></g><g><path fill="#344154" d="M48.53 89.14l-.808-.389c-3.612-1.722-5.965-5.457-5.965-9.508 0-5.773 4.61-10.479 10.267-10.479 5.656 0 10.267 4.706 10.267 10.48 0 4.074-2.353 7.81-5.966 9.507l-.808.389v16.057H48.53zM58.227 108V90.904C62.362 88.576 65 84.114 65 79.264 65 71.965 59.154 66 52 66s-13 5.941-13 13.264c0 4.85 2.638 9.312 6.773 11.64V108z"/></g><g><path fill="#35b4cf" d="M11.252 111.769V61.23h80.496v50.538zM6 56v61h91V56z"/></g></g></g></svg>