<svg xmlns="http://www.w3.org/2000/svg" width="17" height="19" viewBox="0 0 17 19"><g><g><g><path fill="#8a9cb4" d="M6.098 13.249l2.355-1.228-1.92-1.4zM14.328.217l1.617 1.175a1.5 1.5 0 0 1 .332 2.095l-6.458 8.89a.496.496 0 0 1-.189.164l-3.96 2.056a.5.5 0 0 1-.723-.526l.731-4.401a.497.497 0 0 1 .097-.23L12.233.547a1.5 1.5 0 0 1 2.095-.331zm-.588.809a.5.5 0 0 0-.698.11l-6.028 8.3A4.975 4.975 0 0 1 9.44 11.2l6.028-8.3a.5.5 0 0 0-.042-.64l-.068-.059zM6.278 5.18v1H1.639v11h10.999v-4.335h1v5.335H.64v-13z"/></g></g></g></svg>