<svg xmlns="http://www.w3.org/2000/svg" width="78" height="51" viewBox="0 0 78 51"><g><g opacity=".7"><path fill="none" stroke="#1f1f1f" stroke-miterlimit="20" d="M6.945 5.95v0l1-4.95v0H61v44H1v0V6.906v0z"/></g><g opacity=".7"><path fill="#1f1f1f" d="M1 7l6.745-6-.8 6.174z"/><path fill="none" stroke="#1f1f1f" stroke-linejoin="round" stroke-miterlimit="20" d="M1 7v0l6.745-6v0l-.8 6.174v0z"/></g><g opacity=".7"><path fill="#1f1f1f" d="M7 15a2 2 0 0 1 2-2h44a2 2 0 0 1 2 2v3H7z"/><path fill="none" stroke="#1f1f1f" stroke-linejoin="round" stroke-miterlimit="20" d="M7 15a2 2 0 0 1 2-2h44a2 2 0 0 1 2 2v3H7v0z"/></g><g opacity=".7"><path fill="none" stroke="#1f1f1f" stroke-miterlimit="20" d="M7 18v0h48v5H7v0z"/></g><g opacity=".7"><path fill="none" stroke="#1f1f1f" stroke-miterlimit="20" d="M7 28v0h48v5H7v0z"/></g><g opacity=".7"><path fill="none" stroke="#1f1f1f" stroke-miterlimit="20" d="M7 23v0h48v5H7v0z"/></g><g opacity=".7"><path fill="none" stroke="#1f1f1f" stroke-miterlimit="20" d="M7 33v0h48v3a2 2 0 0 1-2 2H9a2 2 0 0 1-2-2z"/></g><g opacity=".7"><path fill="none" stroke="#1f1f1f" stroke-miterlimit="20" d="M17 18v20"/></g><g opacity=".7"><path fill="none" stroke="#1f1f1f" stroke-miterlimit="20" d="M34 13v25"/></g><g opacity=".7"/><g opacity=".7"><path fill="#f9fafb" d="M62 44l-3.5-4-3.5 4h2v6.5h3V44z"/></g><g opacity=".7"><path fill="none" stroke="#f9fafb" stroke-miterlimit="20" d="M17 11.52v7"/></g><g opacity=".7"><path fill="none" stroke="#f9fafb" stroke-miterlimit="20" d="M34 11.52v7"/></g></g></svg>