<svg xmlns="http://www.w3.org/2000/svg" width="62" height="46" viewBox="0 0 62 46"><g><g opacity=".7"><path fill="none" stroke="#1f1f1f" stroke-miterlimit="20" d="M1 1v0h60v44H1v0z"/></g><g opacity=".7"><path fill="none" stroke="#1f1f1f" stroke-miterlimit="20" d="M7 16v0h40v5H7v0z"/></g><g opacity=".7"><path fill="#1f1f1f" d="M7 8h19v5H7z"/><path fill="none" stroke="#1f1f1f" stroke-linejoin="round" stroke-miterlimit="20" d="M7 8v0h19v5H7v0z"/></g><g opacity=".7"><path fill="none" stroke="#1f1f1f" stroke-miterlimit="20" d="M7 32v0h40v5H7v0z"/></g><g opacity=".7"><path fill="none" stroke="#1f1f1f" stroke-miterlimit="20" d="M7 24v0h40v5H7v0z"/></g><g opacity=".7"><path fill="none" stroke="#1f1f1f" stroke-miterlimit="20" d="M50.75 17.915v0l1.494 1.494v0l2.36-2.359v0"/></g><g opacity=".7"><path fill="none" stroke="#1f1f1f" stroke-miterlimit="20" d="M50.75 25.865v0l1.494 1.494v0L54.604 25v0"/></g><g opacity=".7"><path fill="none" stroke="#1f1f1f" stroke-miterlimit="20" d="M50.75 33.865v0l1.494 1.494v0L54.604 33v0"/></g></g></svg>