<svg xmlns="http://www.w3.org/2000/svg" width="56" height="47" viewBox="0 0 56 47"><g><g opacity=".7"><g opacity=".7"><path fill="#1f1f1f" d="M54 11a8 8 0 0 0-8-8H9a8 8 0 0 0-8 8v24.668a2 2 0 0 0 2 2h3L5 46l10.167-8H46a8 8 0 0 0 8-8z"/><path fill="none" stroke="#1f1f1f" stroke-linejoin="round" stroke-miterlimit="20" d="M54 11a8 8 0 0 0-8-8H9a8 8 0 0 0-8 8v24.668a2 2 0 0 0 2 2h3v0L5 46v0l10.167-8v0H46a8 8 0 0 0 8-8z"/></g><g opacity="1"><path fill="#f9fafb" d="M6 5a4 4 0 0 1 4-4h41a4 4 0 0 1 4 4v26.25a2 2 0 0 1-2 2h-2.623l.925 7.75-9.4-7.442H10a4 4 0 0 1-4-4z"/><path fill="none" stroke="#1f1f1f" stroke-miterlimit="20" d="M6 5a4 4 0 0 1 4-4h41a4 4 0 0 1 4 4v26.25a2 2 0 0 1-2 2h-2.623v0l.925 7.75v0l-9.4-7.442v0H10a4 4 0 0 1-4-4z"/></g><g opacity=".7"><path fill="#1f1f1f" d="M39.055 18.93c.25-.347.375-.857.375-1.53s-.125-1.183-.375-1.53-.615-.52-1.095-.52-.847.173-1.1.52c-.253.347-.38.857-.38 1.53s.127 1.183.38 1.53.62.52 1.1.52c.48 0 .845-.173 1.095-.52zm-1.145 3.335c-.36-.317-.54-.752-.54-1.305l.01-.2c-.833-.113-1.485-.463-1.955-1.05s-.705-1.357-.705-2.31c0-.707.13-1.315.39-1.825s.633-.9 1.12-1.17c.487-.27 1.063-.405 1.73-.405s1.242.135 1.725.405c.483.27.855.66 1.115 1.17.26.51.39 1.118.39 1.825 0 .967-.238 1.743-.715 2.33s-1.138.933-1.985 1.04c.027.233.125.397.295.49.17.093.408.14.715.14.54 0 .95-.13 1.23-.39l.41 1.25a1.772 1.772 0 0 1-.7.355 3.663 3.663 0 0 1-1 .125c-.66 0-1.17-.158-1.53-.475zm-8.49-5.805l-.29-1.04h-.02l-.27 1.03-.5 1.59h1.56zm-3.63 4.24l2.32-6.6h2.06l2.31 6.6h-1.77l-.45-1.49h-2.28l-.46 1.49zm-6.79 0v-6.6h5.13v1.33h-3.41v1.4h2.72v1.33h-2.72v2.54z"/></g></g></g></svg>